                            <svg version="1.1" id="Слой_2_00000034797776443906771440000014987528625933374140_"
                                xmlns="http://www.w3.org/2000/svg" xmlns:xlink="http://www.w3.org/1999/xlink" x="0px"
                                y="0px" viewBox="0 0 748.9 543.9" style="enable-background:new 0 0 748.9 543.9;"
                                xml:space="preserve">
                                <style type="text/css">
                                    .st0 {
                                        fill: #F3F2F3;
                                    }

                                    .st1 {
                                        fill: none;
                                        stroke: #B9BAB9;
                                        stroke-miterlimit: 10;
                                    }

                                    .st2 {
                                        fill: none;
                                        stroke: #000000;
                                        stroke-miterlimit: 10;
                                    }

                                    .st3 {
                                        fill-rule: evenodd;
                                        clip-rule: evenodd;
                                    }

                                    .st4 {
                                        fill: #FFFFFF;
                                    }
                                </style>
                                <path class="st0" d="M49.5,30.7l0.2,284.4h-8.2v23.6l-7.8,0.4v90.3c0,18.7,0.2,33.9,18.9,33.9l644-0.4c18.7,0,19.9-15.2,19.9-33.9
v-90.2l-8.1-0.1V315h-7V78.4l-104.5-0.2V31.1L49.5,30.7z" />
                                <rect x="449.5" y="232.4" class="st1" width="35.9" height="69.7" />
                                <line class="st1" x1="467.5" y1="232.4" x2="467.5" y2="302.2" />
                                <line class="st1" x1="449.5" y1="235" x2="485.4" y2="235" />
                                <line class="st1" x1="449.5" y1="237.6" x2="485.4" y2="237.6" />
                                <line class="st1" x1="449.5" y1="240.1" x2="485.4" y2="240.1" />
                                <line class="st1" x1="449.5" y1="242.7" x2="485.4" y2="242.7" />
                                <line class="st1" x1="449.5" y1="245.3" x2="485.4" y2="245.3" />
                                <line class="st1" x1="449.5" y1="247.9" x2="485.4" y2="247.9" />
                                <line class="st1" x1="449.5" y1="250.4" x2="485.4" y2="250.4" />
                                <line class="st1" x1="449.5" y1="253" x2="485.4" y2="253" />
                                <line class="st1" x1="449.5" y1="255.6" x2="485.4" y2="255.6" />
                                <line class="st1" x1="449.5" y1="258.2" x2="485.4" y2="258.2" />
                                <line class="st1" x1="449.5" y1="260.8" x2="485.4" y2="260.8" />
                                <line class="st1" x1="449.5" y1="263.4" x2="485.4" y2="263.4" />
                                <line class="st1" x1="449.5" y1="265.9" x2="485.4" y2="265.9" />
                                <line class="st1" x1="449.5" y1="268.5" x2="485.4" y2="268.5" />
                                <line class="st1" x1="449.5" y1="271.1" x2="485.4" y2="271.1" />
                                <line class="st1" x1="449.5" y1="273.7" x2="485.4" y2="273.7" />
                                <line class="st1" x1="449.5" y1="276.2" x2="485.4" y2="276.2" />
                                <line class="st1" x1="449.5" y1="278.8" x2="485.4" y2="278.8" />
                                <line class="st1" x1="449.5" y1="281.4" x2="485.4" y2="281.4" />
                                <line class="st1" x1="449.5" y1="284" x2="485.4" y2="284" />
                                <line class="st1" x1="449.5" y1="286.6" x2="485.4" y2="286.6" />
                                <line class="st1" x1="449.5" y1="289.1" x2="485.4" y2="289.1" />
                                <line class="st1" x1="449.5" y1="291.7" x2="485.4" y2="291.7" />
                                <line class="st1" x1="449.5" y1="294.3" x2="485.4" y2="294.3" />
                                <line class="st1" x1="449.5" y1="296.9" x2="485.4" y2="296.9" />
                                <line class="st1" x1="449.5" y1="299.5" x2="485.4" y2="299.5" />
                                <path class="st1" d="M414.2,330.5H406c-2.3,0-4.2-1.9-4.2-4.2v-8.2c0-2.3,1.9-4.2,4.2-4.2h8.2c2.3,0,4.2,1.9,4.2,4.2v8.2
C418.4,328.6,416.6,330.5,414.2,330.5z" />
                                <polyline class="st1" points="405.7,330.5 410.3,325.9 414.7,330.4 " />
                                <path class="st1" d="M438.6,330.5h-8.2c-2.3,0-4.2-1.9-4.2-4.2v-8.2c0-2.3,1.9-4.2,4.2-4.2h8.2c2.3,0,4.2,1.9,4.2,4.2v8.2
C442.8,328.6,440.9,330.5,438.6,330.5z" />
                                <polyline class="st1" points="430,330.5 434.6,325.9 439.1,330.4 " />
                                <g>
                                    <path class="st2" d="M427.8,358.7h-11.5c-2.3,0-4.2-1.9-4.2-4.2V343c0-2.3,1.9-4.2,4.2-4.2h11.5c2.3,0,4.2,1.9,4.2,4.2v11.5
C432,356.8,430.1,358.7,427.8,358.7z" />
                                    <g>
                                        <g>
                                            <g>
                                                <path d="M419.7,344.5c-1.6,0-1.6,0-3,0c-0.7,0-1.3,0.6-1.3,1.3v4.1c0,0.3,0.2,0.6,0.5,0.6l0,0c0.3,0,0.5-0.2,0.6-0.5v-4.1l0,0
            c0-0.1,0-0.1,0.1-0.1s0.1,0,0.1,0.1v9.3c0,0.4,0.3,0.7,0.7,0.7s0.7-0.3,0.7-0.7v-5.3h0.3v5.3c0,0.4,0.3,0.7,0.7,0.7
            s0.7-0.3,0.7-0.7c0-8.8,0-3.8,0-9.3c0-0.1,0-0.1,0.1-0.1s0.1,0,0.1,0.1l0,0v4.1c0,0.3,0.2,0.6,0.5,0.6l0,0
            c0.3,0,0.6-0.2,0.6-0.5V346l0,0C421,345,420.5,344.5,419.7,344.5z" />
                                            </g>
                                        </g>
                                        <g>
                                            <g>
                                                <circle cx="418.2" cy="342.9" r="1.1" />
                                            </g>
                                        </g>
                                    </g>
                                    <g>
                                        <g>
                                            <g>
                                                <path d="M427.5,344.5c-1.6,0-1.6,0-3,0c-0.7,0-1.3,0.6-1.3,1.3v4.1c0,0.3,0.2,0.6,0.5,0.6l0,0c0.3,0,0.5-0.2,0.6-0.5v-4.1l0,0
            c0-0.1,0-0.1,0.1-0.1s0.1,0,0.1,0.1v9.3c0,0.4,0.3,0.7,0.7,0.7s0.7-0.3,0.7-0.7v-5.3h0.3v5.3c0,0.4,0.3,0.7,0.7,0.7
            s0.7-0.3,0.7-0.7c0-8.8,0-3.8,0-9.3c0-0.1,0-0.1,0.1-0.1s0.1,0,0.1,0.1l0,0v4.1c0,0.3,0.2,0.6,0.5,0.6l0,0
            c0.3,0,0.6-0.2,0.6-0.5V346l0,0C428.8,345,428.2,344.5,427.5,344.5z" />
                                            </g>
                                        </g>
                                        <g>
                                            <g>
                                                <circle cx="426" cy="342.9" r="1.1" />
                                            </g>
                                        </g>
                                    </g>
                                    <path class="st3"
                                        d="M419.7,337.4h-1.6c-0.1,0-0.3-0.1-0.3-0.3v-1.4h-0.6c-0.1,0-0.2,0-0.2-0.2c0-0.1,0-0.2,0-0.3l1.8-2.4
c0,0,0.1-0.1,0.2-0.1s0.2,0,0.2,0.1l1.6,2.4c0,0.1,0,0.2,0,0.3s-0.1,0.1-0.2,0.1H420v1.4C420,337.2,419.9,337.4,419.7,337.4z" />
                                    <path class="st3"
                                        d="M424.7,332.7h1.6c0.1,0,0.3,0.1,0.3,0.3v1.4h0.6c0.1,0,0.2,0,0.2,0.2c0,0.1,0,0.2,0,0.3l-1.8,2.4
c0,0-0.1,0.1-0.2,0.1s-0.2,0-0.2-0.1l-1.6-2.4c0-0.1,0-0.2,0-0.3s0.1-0.1,0.2-0.1h0.6V333C424.4,332.9,424.5,332.7,424.7,332.7z" />
                                </g>
                                <g>
                                    <g>
                                        <path
                                            d="M502.7,233.5l-4.6,4.6c0-0.9-0.5-1.7-1.2-1.7h-4.2c-0.9,0-1.5,1.3-1.1,2.3l1.7,4.3l-1.1,1.1h-1.8c-0.5,0-0.9,0.4-0.9,0.9
    l0,0c0,0.5,0.4,0.9,0.9,0.9h2.5l10.6-10.6h1.6c0.5,0,0.9-0.4,0.9-0.9l0,0c0-0.5-0.4-0.9-0.9-0.9L502.7,233.5L502.7,233.5z" />
                                        <ellipse cx="494.7" cy="233.8" rx="1.9" ry="1.9" />
                                    </g>
                                    <path class="st3" d="M500.5,243.7l-1.1-1.1c-0.1-0.1-0.1-0.3,0-0.4l1-1l-0.5-0.4c-0.1-0.1-0.1-0.2,0-0.3c0-0.1,0.1-0.2,0.2-0.2
l2.9-0.5c0.1,0,0.2,0,0.2,0.1c0.1,0.1,0.1,0.2,0.1,0.2l-0.5,2.8c0,0.1-0.1,0.2-0.2,0.2s-0.2,0-0.3-0.1l-0.5-0.4l-1,1
C500.9,243.8,500.7,243.8,500.5,243.7z" />
                                </g>
                                <g>
                                    <g>
                                        <path
                                            d="M442.1,290.3l-4.6,4.6c0-0.9-0.5-1.7-1.2-1.7h-4.2c-0.9,0-1.5,1.3-1.1,2.3l1.7,4.3l-1.1,1.1h-1.8c-0.5,0-0.9,0.4-0.9,0.9
    l0,0c0,0.5,0.4,0.9,0.9,0.9h2.5l10.6-10.6h1.6c0.5,0,0.9-0.4,0.9-0.9l0,0c0-0.5-0.4-0.9-0.9-0.9L442.1,290.3L442.1,290.3z" />
                                        <ellipse cx="434.2" cy="290.6" rx="1.9" ry="1.9" />
                                    </g>
                                    <path class="st3" d="M442.1,296.1l1.1,1.1c0.1,0.1,0.1,0.3,0,0.4l-1,1l0.5,0.5c0.1,0.1,0.1,0.2,0,0.3c0,0.1-0.1,0.2-0.2,0.2
l-2.9,0.5c-0.1,0-0.2,0-0.2-0.1s-0.1-0.2-0.1-0.2l0.5-2.8c0-0.1,0.1-0.2,0.2-0.2s0.2,0,0.3,0.1l0.5,0.5l1-1
C441.8,296,442,295.9,442.1,296.1z" />
                                </g>
                                <rect x="665.2" y="252" class="st4" width="29.8" height="29.8" />
                                <rect x="665.2" y="217.2" class="st4" width="29.8" height="29.8" />
                                <g>
                                    <g>
                                        <g>
                                            <path d="M689.8,233.3c0-1.7,0-1.7,0-3.1c0-0.8-0.6-1.4-1.4-1.4h-4.3c-0.3,0-0.6,0.3-0.6,0.6l0,0c0,0.3,0.3,0.6,0.6,0.6h4.3l0,0
        c0.1,0,0.1,0.1,0.1,0.1c0,0.1-0.1,0.1-0.1,0.1h-9.7c-0.4,0-0.7,0.3-0.7,0.7s0.3,0.7,0.7,0.7h5.5v0.3h-5.5c-0.4,0-0.7,0.3-0.7,0.7
        s0.3,0.7,0.7,0.7c9.2,0,3.9,0,9.7,0c0.1,0,0.1,0.1,0.1,0.1c0,0.1,0,0.1-0.1,0.1l0,0h-4.3c-0.3,0-0.6,0.3-0.6,0.6l0,0
        c0,0.3,0.3,0.6,0.6,0.6h4.3l0,0C689.2,234.6,689.8,234,689.8,233.3z" />
                                        </g>
                                    </g>
                                    <g>
                                        <g>
                                            <circle cx="691.4" cy="231.7" r="1.2" />
                                        </g>
                                    </g>
                                </g>
                                <g>
                                    <g>
                                        <g>
                                            <path d="M685.1,270.2c0,0,3-1.1,3.5-1.2c0.8-0.3,1.2-0.7,1.2-1.3c0-0.9,0-1.1,0-2c0-0.6-0.4-1.1-1.2-1.3
        c-0.5-0.2-3.5-1.2-3.5-1.2c-0.3-0.1-0.6,0.1-0.7,0.4c-0.1,0.3,0.1,0.6,0.4,0.7c0.1,0,1.9,0.7,2.9,1c-0.3,0,0.3,0.1-4.3-0.8
        c-0.2,0-0.4,0.1-0.4,0.3c0,0.1,0,0.3,0,0.4h-4.2c-0.4,0-0.7,0.3-0.7,0.7s0.3,0.7,0.7,0.7h4.2c0,0.1,0,0.2,0,0.3h-4.2
        c-0.4,0-0.7,0.3-0.7,0.7s0.3,0.7,0.7,0.7h4.2c0,0.2,0,0.3,0,0.4c0,0.2,0.2,0.4,0.4,0.3c4.6-0.9,4-0.8,4.3-0.8c-1,0.4-2.8,1-2.9,1
        c-0.3,0.1-0.5,0.4-0.4,0.7C684.4,270.1,684.8,270.2,685.1,270.2z" />
                                        </g>
                                    </g>
                                    <g>
                                        <g>
                                            <circle cx="691.3" cy="266.6" r="1.2" />
                                        </g>
                                    </g>
                                </g>
                                <g>
                                    <path d="M675.2,267.6c0.1-0.3-0.1-0.7-0.4-0.8l-4.2-1.5l4.1-1.1c0.3-0.1,0.5-0.3,0.5-0.6c0-0.3-0.2-0.5-0.5-0.6l-4.1-1.1l4.2-1.5
c0.3-0.1,0.5-0.5,0.4-0.8s-0.5-0.5-0.8-0.4l-6,2.1c-0.3,0.1-0.4,0.3-0.4,0.6c0,0.3,0.2,0.5,0.5,0.6l3.9,1l-3.9,1.1
c-0.3,0.1-0.4,0.3-0.5,0.6l0,0c0,0.3,0.2,0.5,0.4,0.6l6,2.1C674.8,268.1,675.1,267.9,675.2,267.6L675.2,267.6z" />
                                    <path d="M669.2,273.4c0.3-0.1,0.4-0.5,0.3-0.8c-0.2-0.4-0.3-0.7-0.3-1.1c0-1.3,1.1-2.5,2.5-2.5c1.3,0,2.5,1.1,2.5,2.5
c0,0.4-0.1,0.7-0.2,1c-0.1,0.3,0,0.7,0.3,0.8s0.7,0,0.8-0.3c0.2-0.5,0.3-1,0.3-1.5c0-2-1.7-3.7-3.7-3.7s-3.7,1.7-3.7,3.7
c0,0.6,0.1,1.1,0.4,1.7C668.5,273.4,668.9,273.5,669.2,273.4z" />
                                </g>
                                <g>
                                    <path d="M675.2,233.3c0.1-0.3-0.1-0.7-0.4-0.8l-4.2-1.5l4.1-1.1c0.3-0.1,0.5-0.3,0.5-0.6s-0.2-0.5-0.5-0.6l-4.1-1.1l4.2-1.5
c0.3-0.1,0.5-0.5,0.4-0.8s-0.5-0.5-0.8-0.4l-6,2.1c-0.3,0.1-0.4,0.3-0.4,0.6s0.2,0.5,0.5,0.6l3.9,1.1l-3.9,1
c-0.3,0.1-0.4,0.3-0.5,0.6l0,0c0,0.3,0.2,0.5,0.4,0.6l6,2.1C674.8,233.8,675.1,233.6,675.2,233.3L675.2,233.3z" />
                                    <path d="M669.2,239.1c0.3-0.1,0.4-0.5,0.3-0.8c-0.2-0.4-0.3-0.7-0.3-1.1c0-1.3,1.1-2.5,2.5-2.5c1.3,0,2.5,1.1,2.5,2.5
c0,0.4-0.1,0.7-0.2,1c-0.1,0.3,0,0.7,0.3,0.8s0.7,0,0.8-0.3c0.2-0.5,0.3-1,0.3-1.5c0-2-1.7-3.7-3.7-3.7s-3.7,1.7-3.7,3.7
c0,0.6,0.1,1.1,0.4,1.7C668.5,239.1,668.9,239.2,669.2,239.1z" />
                                </g>
                                <path class="st4" d="M441.4,39.1H93.2l0.4,105.6h262.3c0,0,33.5-37.1,85.5-39.1V39.1z" />
                                <path class="st4" d="M446.4,39.1v66.5c51.6,0.6,95.3,43.2,106.8,87.8h38.2V39.1H446.4z" />
                                <path class="st4" d="M57.7,188.8h275.4c0,0-34.8,129.8,65.7,258.2H56.4L57.7,188.8z" />
                                <path class="st4"
                                    d="M551.2,326.5h144.2v-38H655v-56h-94.6C560.4,232.5,567,270.8,551.2,326.5z" />
                                <path class="st4" d="M549.7,331.5c-10.3,34-28.9,74.1-62.1,115.7h207.8V331.5H549.7z" />
                            </svg>
