                            <svg version="1.1" id="Слой_1" xmlns="http://www.w3.org/2000/svg" xmlns:xlink="http://www.w3.org/1999/xlink" x="0px" y="0px"
                                viewBox="0 0 748.9 543.9" style="enable-background:new 0 0 748.9 543.9;" xml:space="preserve">
                            <style type="text/css">
                                .st0{fill:#F3F2F3;}
                                .st1{fill:none;stroke:#B9BAB9;stroke-miterlimit:10;}
                                .st2{fill:none;stroke:#000000;stroke-miterlimit:10;}
                                .st3{fill-rule:evenodd;clip-rule:evenodd;}
                                .st4{fill:#FFFFFF;}
                                .st5{fill:#B9BAB9;}
                            </style>
                            <g id="Слой_2_00000034797776443906771440000014987528625933374140_">
                                <path class="st0" d="M49.5,30.7l0.2,284.4h-8.2v23.6l-7.8,0.4v90.3c0,18.7,0.2,33.9,18.9,33.9l644-0.4c18.7,0,19.9-15.2,19.9-33.9
                                    v-90.2l-8.1-0.1V315h-7V78.4l-104.5-0.2V31.1L49.5,30.7z"/>
                                <rect x="449.5" y="232.4" class="st1" width="35.9" height="69.7"/>
                                <line class="st1" x1="467.5" y1="232.4" x2="467.5" y2="302.2"/>
                                <line class="st1" x1="449.5" y1="235" x2="485.4" y2="235"/>
                                <line class="st1" x1="449.5" y1="237.6" x2="485.4" y2="237.6"/>
                                <line class="st1" x1="449.5" y1="240.1" x2="485.4" y2="240.1"/>
                                <line class="st1" x1="449.5" y1="242.7" x2="485.4" y2="242.7"/>
                                <line class="st1" x1="449.5" y1="245.3" x2="485.4" y2="245.3"/>
                                <line class="st1" x1="449.5" y1="247.9" x2="485.4" y2="247.9"/>
                                <line class="st1" x1="449.5" y1="250.4" x2="485.4" y2="250.4"/>
                                <line class="st1" x1="449.5" y1="253" x2="485.4" y2="253"/>
                                <line class="st1" x1="449.5" y1="255.6" x2="485.4" y2="255.6"/>
                                <line class="st1" x1="449.5" y1="258.2" x2="485.4" y2="258.2"/>
                                <line class="st1" x1="449.5" y1="260.8" x2="485.4" y2="260.8"/>
                                <line class="st1" x1="449.5" y1="263.4" x2="485.4" y2="263.4"/>
                                <line class="st1" x1="449.5" y1="265.9" x2="485.4" y2="265.9"/>
                                <line class="st1" x1="449.5" y1="268.5" x2="485.4" y2="268.5"/>
                                <line class="st1" x1="449.5" y1="271.1" x2="485.4" y2="271.1"/>
                                <line class="st1" x1="449.5" y1="273.7" x2="485.4" y2="273.7"/>
                                <line class="st1" x1="449.5" y1="276.2" x2="485.4" y2="276.2"/>
                                <line class="st1" x1="449.5" y1="278.8" x2="485.4" y2="278.8"/>
                                <line class="st1" x1="449.5" y1="281.4" x2="485.4" y2="281.4"/>
                                <line class="st1" x1="449.5" y1="284" x2="485.4" y2="284"/>
                                <line class="st1" x1="449.5" y1="286.6" x2="485.4" y2="286.6"/>
                                <line class="st1" x1="449.5" y1="289.1" x2="485.4" y2="289.1"/>
                                <line class="st1" x1="449.5" y1="291.7" x2="485.4" y2="291.7"/>
                                <line class="st1" x1="449.5" y1="294.3" x2="485.4" y2="294.3"/>
                                <line class="st1" x1="449.5" y1="296.9" x2="485.4" y2="296.9"/>
                                <line class="st1" x1="449.5" y1="299.5" x2="485.4" y2="299.5"/>
                                <path class="st1" d="M414.2,330.5H406c-2.3,0-4.2-1.9-4.2-4.2v-8.2c0-2.3,1.9-4.2,4.2-4.2h8.2c2.3,0,4.2,1.9,4.2,4.2v8.2
                                    C418.4,328.6,416.6,330.5,414.2,330.5z"/>
                                <polyline class="st1" points="405.7,330.5 410.3,325.9 414.7,330.4 	"/>
                                <path class="st1" d="M438.6,330.5h-8.2c-2.3,0-4.2-1.9-4.2-4.2v-8.2c0-2.3,1.9-4.2,4.2-4.2h8.2c2.3,0,4.2,1.9,4.2,4.2v8.2
                                    C442.8,328.6,440.9,330.5,438.6,330.5z"/>
                                <polyline class="st1" points="430,330.5 434.6,325.9 439.1,330.4 	"/>
                                <g>
                                    <path class="st2" d="M427.8,358.7h-11.5c-2.3,0-4.2-1.9-4.2-4.2V343c0-2.3,1.9-4.2,4.2-4.2h11.5c2.3,0,4.2,1.9,4.2,4.2v11.5
                                        C432,356.8,430.1,358.7,427.8,358.7z"/>
                                    <g>
                                        <g>
                                            <g>
                                                <path d="M419.7,344.5c-1.6,0-1.6,0-3,0c-0.7,0-1.3,0.6-1.3,1.3v4.1c0,0.3,0.2,0.6,0.5,0.6l0,0c0.3,0,0.5-0.2,0.6-0.5v-4.1l0,0
                                                    c0-0.1,0-0.1,0.1-0.1s0.1,0,0.1,0.1v9.3c0,0.4,0.3,0.7,0.7,0.7s0.7-0.3,0.7-0.7v-5.3h0.3v5.3c0,0.4,0.3,0.7,0.7,0.7
                                                    s0.7-0.3,0.7-0.7c0-8.8,0-3.8,0-9.3c0-0.1,0-0.1,0.1-0.1s0.1,0,0.1,0.1l0,0v4.1c0,0.3,0.2,0.6,0.5,0.6l0,0
                                                    c0.3,0,0.6-0.2,0.6-0.5V346l0,0C421,345,420.5,344.5,419.7,344.5z"/>
                                            </g>
                                        </g>
                                        <g>
                                            <g>
                                                <circle cx="418.2" cy="342.9" r="1.1"/>
                                            </g>
                                        </g>
                                    </g>
                                    <g>
                                        <g>
                                            <g>
                                                <path d="M427.5,344.5c-1.6,0-1.6,0-3,0c-0.7,0-1.3,0.6-1.3,1.3v4.1c0,0.3,0.2,0.6,0.5,0.6l0,0c0.3,0,0.5-0.2,0.6-0.5v-4.1l0,0
                                                    c0-0.1,0-0.1,0.1-0.1s0.1,0,0.1,0.1v9.3c0,0.4,0.3,0.7,0.7,0.7s0.7-0.3,0.7-0.7v-5.3h0.3v5.3c0,0.4,0.3,0.7,0.7,0.7
                                                    s0.7-0.3,0.7-0.7c0-8.8,0-3.8,0-9.3c0-0.1,0-0.1,0.1-0.1s0.1,0,0.1,0.1l0,0v4.1c0,0.3,0.2,0.6,0.5,0.6l0,0
                                                    c0.3,0,0.6-0.2,0.6-0.5V346l0,0C428.8,345,428.2,344.5,427.5,344.5z"/>
                                            </g>
                                        </g>
                                        <g>
                                            <g>
                                                <circle cx="426" cy="342.9" r="1.1"/>
                                            </g>
                                        </g>
                                    </g>
                                    <path class="st3" d="M419.7,337.4h-1.6c-0.1,0-0.3-0.1-0.3-0.3v-1.4h-0.6c-0.1,0-0.2,0-0.2-0.2c0-0.1,0-0.2,0-0.3l1.8-2.4
                                        c0,0,0.1-0.1,0.2-0.1s0.2,0,0.2,0.1l1.6,2.4c0,0.1,0,0.2,0,0.3s-0.1,0.1-0.2,0.1H420v1.4C420,337.2,419.9,337.4,419.7,337.4z"/>
                                    <path class="st3" d="M424.7,332.7h1.6c0.1,0,0.3,0.1,0.3,0.3v1.4h0.6c0.1,0,0.2,0,0.2,0.2c0,0.1,0,0.2,0,0.3l-1.8,2.4
                                        c0,0-0.1,0.1-0.2,0.1s-0.2,0-0.2-0.1l-1.6-2.4c0-0.1,0-0.2,0-0.3s0.1-0.1,0.2-0.1h0.6V333C424.4,332.9,424.5,332.7,424.7,332.7z"
                                        />
                                </g>
                                <g>
                                    <g>
                                        <path d="M502.7,233.5l-4.6,4.6c0-0.9-0.5-1.7-1.2-1.7h-4.2c-0.9,0-1.5,1.3-1.1,2.3l1.7,4.3l-1.1,1.1h-1.8c-0.5,0-0.9,0.4-0.9,0.9
                                            l0,0c0,0.5,0.4,0.9,0.9,0.9h2.5l10.6-10.6h1.6c0.5,0,0.9-0.4,0.9-0.9l0,0c0-0.5-0.4-0.9-0.9-0.9L502.7,233.5L502.7,233.5z"/>
                                        <ellipse cx="494.7" cy="233.8" rx="1.9" ry="1.9"/>
                                    </g>
                                    <path class="st3" d="M500.5,243.7l-1.1-1.1c-0.1-0.1-0.1-0.3,0-0.4l1-1l-0.5-0.4c-0.1-0.1-0.1-0.2,0-0.3c0-0.1,0.1-0.2,0.2-0.2
                                        l2.9-0.5c0.1,0,0.2,0,0.2,0.1c0.1,0.1,0.1,0.2,0.1,0.2l-0.5,2.8c0,0.1-0.1,0.2-0.2,0.2s-0.2,0-0.3-0.1l-0.5-0.4l-1,1
                                        C500.9,243.8,500.7,243.8,500.5,243.7z"/>
                                </g>
                                <g>
                                    <g>
                                        <path d="M442.1,290.3l-4.6,4.6c0-0.9-0.5-1.7-1.2-1.7h-4.2c-0.9,0-1.5,1.3-1.1,2.3l1.7,4.3l-1.1,1.1h-1.8c-0.5,0-0.9,0.4-0.9,0.9
                                            l0,0c0,0.5,0.4,0.9,0.9,0.9h2.5l10.6-10.6h1.6c0.5,0,0.9-0.4,0.9-0.9l0,0c0-0.5-0.4-0.9-0.9-0.9L442.1,290.3L442.1,290.3z"/>
                                        <ellipse cx="434.2" cy="290.6" rx="1.9" ry="1.9"/>
                                    </g>
                                    <path class="st3" d="M442.1,296.1l1.1,1.1c0.1,0.1,0.1,0.3,0,0.4l-1,1l0.5,0.5c0.1,0.1,0.1,0.2,0,0.3c0,0.1-0.1,0.2-0.2,0.2
                                        l-2.9,0.5c-0.1,0-0.2,0-0.2-0.1s-0.1-0.2-0.1-0.2l0.5-2.8c0-0.1,0.1-0.2,0.2-0.2s0.2,0,0.3,0.1l0.5,0.5l1-1
                                        C441.8,296,442,295.9,442.1,296.1z"/>
                                </g>
                                <rect x="242.6" y="40.5" class="st4" width="29.8" height="29.8"/>
                                <rect x="110.5" y="40.5" class="st4" width="29.8" height="29.8"/>
                                <g>
                                    <g>
                                        <g>
                                            <path d="M126.6,45.7c-1.7,0-1.7,0-3.1,0c-0.8,0-1.4,0.6-1.4,1.4v4.3c0,0.3,0.3,0.6,0.6,0.6l0,0c0.3,0,0.6-0.3,0.6-0.6v-4.3l0,0
                                                c0-0.1,0.1-0.1,0.1-0.1c0.1,0,0.1,0.1,0.1,0.1v9.7c0,0.4,0.3,0.7,0.7,0.7s0.7-0.3,0.7-0.7v-5.5h0.3v5.5c0,0.4,0.3,0.7,0.7,0.7
                                                s0.7-0.3,0.7-0.7c0-9.2,0-3.9,0-9.7c0-0.1,0.1-0.1,0.1-0.1c0.1,0,0.1,0,0.1,0.1l0,0v4.3c0,0.3,0.3,0.6,0.6,0.6l0,0
                                                c0.3,0,0.6-0.3,0.6-0.6v-4.3l0,0C127.9,46.3,127.3,45.7,126.6,45.7z"/>
                                        </g>
                                    </g>
                                    <g>
                                        <g>
                                            <circle cx="125" cy="44.1" r="1.2"/>
                                        </g>
                                    </g>
                                </g>
                                <g>
                                    <g>
                                        <g>
                                            <path d="M260.8,50.4c0,0-1.1-3-1.2-3.5c-0.3-0.8-0.7-1.2-1.3-1.2c-0.9,0-1.1,0-2,0c-0.6,0-1.1,0.4-1.3,1.2
                                                c-0.2,0.5-1.2,3.5-1.2,3.5c-0.1,0.3,0.1,0.6,0.4,0.7c0.3,0.1,0.6-0.1,0.7-0.4c0-0.1,0.7-1.9,1-2.9c0,0.3,0.1-0.3-0.8,4.3
                                                c0,0.2,0.1,0.4,0.3,0.4c0.1,0,0.3,0,0.4,0v4.2c0,0.4,0.3,0.7,0.7,0.7s0.7-0.3,0.7-0.7v-4.2c0.1,0,0.2,0,0.3,0v4.2
                                                c0,0.4,0.3,0.7,0.7,0.7s0.7-0.3,0.7-0.7v-4.2c0.2,0,0.3,0,0.4,0c0.2,0,0.4-0.2,0.3-0.4c-0.9-4.6-0.8-4-0.8-4.3
                                                c0.4,1,1,2.8,1,2.9c0.1,0.3,0.4,0.5,0.7,0.4C260.7,51.1,260.8,50.7,260.8,50.4z"/>
                                        </g>
                                    </g>
                                    <g>
                                        <g>
                                            <circle cx="257.2" cy="44.2" r="1.2"/>
                                        </g>
                                    </g>
                                </g>
                                <g>
                                    <path d="M258.2,60.3c-0.3-0.1-0.7,0.1-0.8,0.4l-1.5,4.2l-1.1-4.1c-0.1-0.3-0.3-0.5-0.6-0.5s-0.5,0.2-0.6,0.5l-1.1,4.1l-1.5-4.2
                                        c-0.1-0.3-0.5-0.5-0.8-0.4s-0.5,0.5-0.4,0.8l2.1,6c0.1,0.3,0.3,0.4,0.6,0.4s0.5-0.2,0.6-0.5l1-3.9l1.1,3.9
                                        c0.1,0.3,0.3,0.4,0.6,0.5l0,0c0.3,0,0.5-0.2,0.6-0.4l2.1-6C258.7,60.7,258.5,60.4,258.2,60.3L258.2,60.3z"/>
                                    <path d="M264,66.3c-0.1-0.3-0.5-0.4-0.8-0.3c-0.4,0.2-0.7,0.3-1.1,0.3c-1.3,0-2.5-1.1-2.5-2.5c0-1.3,1.1-2.5,2.5-2.5
                                        c0.4,0,0.7,0.1,1,0.2c0.3,0.1,0.7,0,0.8-0.3s0-0.7-0.3-0.8c-0.5-0.2-1-0.3-1.5-0.3c-2,0-3.7,1.7-3.7,3.7c0,2,1.7,3.7,3.7,3.7
                                        c0.6,0,1.1-0.1,1.7-0.4C264,67,264.1,66.6,264,66.3z"/>
                                </g>
                                <g>
                                    <path d="M126.6,60.3c-0.3-0.1-0.7,0.1-0.8,0.4l-1.5,4.2l-1.1-4.1c-0.1-0.3-0.3-0.5-0.6-0.5s-0.5,0.2-0.6,0.5l-1.1,4.1l-1.5-4.2
                                        c-0.1-0.3-0.5-0.5-0.8-0.4s-0.5,0.5-0.4,0.8l2.1,6c0.1,0.3,0.3,0.4,0.6,0.4s0.5-0.2,0.6-0.5l1.1-3.9l1,3.9
                                        c0.1,0.3,0.3,0.4,0.6,0.5l0,0c0.3,0,0.5-0.2,0.6-0.4l2.1-6C127.1,60.7,126.9,60.4,126.6,60.3L126.6,60.3z"/>
                                    <path d="M132.4,66.3c-0.1-0.3-0.5-0.4-0.8-0.3c-0.4,0.2-0.7,0.3-1.1,0.3c-1.3,0-2.5-1.1-2.5-2.5c0-1.3,1.1-2.5,2.5-2.5
                                        c0.4,0,0.7,0.1,1,0.2c0.3,0.1,0.7,0,0.8-0.3s0-0.7-0.3-0.8c-0.5-0.2-1-0.3-1.5-0.3c-2,0-3.7,1.7-3.7,3.7c0,2,1.7,3.7,3.7,3.7
                                        c0.6,0,1.1-0.1,1.7-0.4C132.4,67,132.5,66.6,132.4,66.3z"/>
                                </g>
                            </g>
                            <g id="Слой_3">
                                <polygon class="st4" points="581.7,226.2 581.7,450.1 692.2,450.1 692.2,205.3 641.8,205.3 641.8,226.1 	"/>
                                <path class="st4" d="M292.7,146.1h54.9c0,0,91.2-68.8,204.1,0h40.1V40.5H292.5L292.7,146.1z"/>
                                <path class="st4" d="M311.5,187.9v47.2c0,9-3.1,17.3-10.7,20.8s-14.4,2.5-20.9,0.9c-16.7-4.1-38.8-12.1-76.4,3.1v-72.2L311.5,187.9
                                    z"/>
                                <path class="st4" d="M199.8,187.7v73.1c0,0-16.3,7.4-29.8,21.2l-78.1-72.9v-21.4L199.8,187.7L199.8,187.7z"/>
                                <path class="st4" d="M91.7,213l75.6,70.4c0,0-14.2,20.7-17.6,29.3L73.1,277v-64H91.7z"/>
                                <path class="st4" d="M148.4,314.8c0,0-9.3,26.6-5.9,49.9c0,0-68.2-6.3-86.9-16.4v-68.4H72L148.4,314.8z"/>
                            </g>
                            <path class="st5" d="M646.3,327.9c3.3,0,5.9,13.7,5.9,30.7h4.7c0-18.2-4.8-33-10.6-33c-3.3,0-6.3,4.4-8.3,11.4
                                c-2-6.9-4.9-11.4-8.2-11.4c-5.9,0-10.6,14.7-10.6,33h4.7c0-16.9,2.6-30.6,5.9-30.6c3.3,0,5.9,12.7,5.9,28.3h4.7
                                C640.3,340.5,643,327.9,646.3,327.9"/>
                            </svg>
